<svg xmlns="http://www.w3.org/2000/svg" width="920" height="760" viewBox="0 0 920 760">
<rect width="100%" height="100%" fill="white"/>
<text x="460.0" y="32" text-anchor="middle" font-family="Helvetica,Arial,sans-serif" font-size="22">Beam-end diagnostics along tracked branch</text>
<rect x="70" y="70" width="780" height="290.0" fill="none" stroke="#444" stroke-width="1"/>
<rect x="70" y="400.0" width="780" height="290.0" fill="none" stroke="#444" stroke-width="1"/>
<line x1="97.61" y1="70" x2="97.61" y2="360.0" stroke="#ddd" stroke-width="1"/>
<line x1="97.61" y1="400.0" x2="97.61" y2="690.0" stroke="#ddd" stroke-width="1"/>
<text x="97.61" y="718" text-anchor="middle" font-family="Helvetica,Arial,sans-serif" font-size="14">-5</text>
<line x1="197.61" y1="70" x2="197.61" y2="360.0" stroke="#ddd" stroke-width="1"/>
<line x1="197.61" y1="400.0" x2="197.61" y2="690.0" stroke="#ddd" stroke-width="1"/>
<text x="197.61" y="718" text-anchor="middle" font-family="Helvetica,Arial,sans-serif" font-size="14">-4.5</text>
<line x1="297.61" y1="70" x2="297.61" y2="360.0" stroke="#ddd" stroke-width="1"/>
<line x1="297.61" y1="400.0" x2="297.61" y2="690.0" stroke="#ddd" stroke-width="1"/>
<text x="297.61" y="718" text-anchor="middle" font-family="Helvetica,Arial,sans-serif" font-size="14">-4</text>
<line x1="397.61" y1="70" x2="397.61" y2="360.0" stroke="#ddd" stroke-width="1"/>
<line x1="397.61" y1="400.0" x2="397.61" y2="690.0" stroke="#ddd" stroke-width="1"/>
<text x="397.61" y="718" text-anchor="middle" font-family="Helvetica,Arial,sans-serif" font-size="14">-3.5</text>
<line x1="497.61" y1="70" x2="497.61" y2="360.0" stroke="#ddd" stroke-width="1"/>
<line x1="497.61" y1="400.0" x2="497.61" y2="690.0" stroke="#ddd" stroke-width="1"/>
<text x="497.61" y="718" text-anchor="middle" font-family="Helvetica,Arial,sans-serif" font-size="14">-3</text>
<line x1="597.61" y1="70" x2="597.61" y2="360.0" stroke="#ddd" stroke-width="1"/>
<line x1="597.61" y1="400.0" x2="597.61" y2="690.0" stroke="#ddd" stroke-width="1"/>
<text x="597.61" y="718" text-anchor="middle" font-family="Helvetica,Arial,sans-serif" font-size="14">-2.5</text>
<line x1="697.61" y1="70" x2="697.61" y2="360.0" stroke="#ddd" stroke-width="1"/>
<line x1="697.61" y1="400.0" x2="697.61" y2="690.0" stroke="#ddd" stroke-width="1"/>
<text x="697.61" y="718" text-anchor="middle" font-family="Helvetica,Arial,sans-serif" font-size="14">-2</text>
<line x1="70" y1="295.64" x2="850" y2="295.64" stroke="#ddd" stroke-width="1"/>
<text x="60" y="300.64" text-anchor="end" font-family="Helvetica,Arial,sans-serif" font-size="14">0.001</text>
<line x1="70" y1="228.58" x2="850" y2="228.58" stroke="#ddd" stroke-width="1"/>
<text x="60" y="233.58" text-anchor="end" font-family="Helvetica,Arial,sans-serif" font-size="14">0.01</text>
<line x1="70" y1="161.51" x2="850" y2="161.51" stroke="#ddd" stroke-width="1"/>
<text x="60" y="166.51" text-anchor="end" font-family="Helvetica,Arial,sans-serif" font-size="14">0.1</text>
<line x1="70" y1="94.45" x2="850" y2="94.45" stroke="#ddd" stroke-width="1"/>
<text x="60" y="99.45" text-anchor="end" font-family="Helvetica,Arial,sans-serif" font-size="14">1</text>
<line x1="70" y1="690.00" x2="850" y2="690.00" stroke="#ddd" stroke-width="1"/>
<text x="60" y="695.00" text-anchor="end" font-family="Helvetica,Arial,sans-serif" font-size="14">0</text>
<line x1="70" y1="632.00" x2="850" y2="632.00" stroke="#ddd" stroke-width="1"/>
<text x="60" y="637.00" text-anchor="end" font-family="Helvetica,Arial,sans-serif" font-size="14">0.2</text>
<line x1="70" y1="574.00" x2="850" y2="574.00" stroke="#ddd" stroke-width="1"/>
<text x="60" y="579.00" text-anchor="end" font-family="Helvetica,Arial,sans-serif" font-size="14">0.4</text>
<line x1="70" y1="516.00" x2="850" y2="516.00" stroke="#ddd" stroke-width="1"/>
<text x="60" y="521.00" text-anchor="end" font-family="Helvetica,Arial,sans-serif" font-size="14">0.6</text>
<line x1="70" y1="458.00" x2="850" y2="458.00" stroke="#ddd" stroke-width="1"/>
<text x="60" y="463.00" text-anchor="end" font-family="Helvetica,Arial,sans-serif" font-size="14">0.8</text>
<line x1="70" y1="400.00" x2="850" y2="400.00" stroke="#ddd" stroke-width="1"/>
<text x="60" y="405.00" text-anchor="end" font-family="Helvetica,Arial,sans-serif" font-size="14">1</text>
<text x="24" y="215.00" transform="rotate(-90 24 215.00)" text-anchor="middle" font-family="Helvetica,Arial,sans-serif" font-size="18">|S|/|A|</text>
<text x="24" y="545.00" transform="rotate(-90 24 545.00)" text-anchor="middle" font-family="Helvetica,Arial,sans-serif" font-size="18">|cos(arg S - arg A)|</text>
<text x="460.0" y="746" text-anchor="middle" font-family="Helvetica,Arial,sans-serif" font-size="18">log10(EI)</text>
<line x1="700" y1="52" x2="726" y2="52" stroke="#d04a02" stroke-width="3"/>
<text x="736" y="57" font-family="Helvetica,Arial,sans-serif" font-size="15">Coupled</text>
<line x1="700" y1="76" x2="726" y2="76" stroke="#1f77b4" stroke-width="3"/>
<text x="736" y="81" font-family="Helvetica,Arial,sans-serif" font-size="15">Uncoupled</text>
<polyline fill="none" stroke="#d04a02" stroke-width="2" points="70.00,239.14 80.90,230.19 85.25,221.72 92.53,234.44 100.48,225.44 108.44,232.86 116.39,273.31 124.35,308.34 132.31,267.42 140.28,246.74 148.24,284.39 156.20,290.09 164.16,266.62 172.12,250.88 180.08,207.97 188.04,176.94 196.00,185.07 203.96,204.74 211.92,224.90 219.87,213.08 227.83,236.97 235.79,275.80 243.74,269.13 251.69,278.47 259.64,315.22 267.59,293.92 275.55,277.41 283.50,280.88 291.44,275.64 299.39,259.93 307.32,249.13 315.28,264.43 323.25,295.95 331.17,284.63 339.02,294.37 346.97,275.65 354.94,264.53 362.90,253.04 370.85,243.84 378.81,235.53 386.77,227.31 394.73,220.64 402.70,216.37 410.66,210.91 418.61,203.43 426.58,200.51 434.55,196.21 442.51,191.40 450.47,185.66 458.44,183.34 466.41,178.87 474.36,172.91 482.33,167.89 490.30,165.07 498.27,159.46 506.23,152.57 514.20,144.30 522.16,132.89 530.07,105.11 538.04,105.12 546.01,121.63 553.99,139.62 561.96,151.35 569.93,155.33 577.90,157.50 585.86,166.80 593.82,173.60 601.79,175.76 609.74,186.98 617.68,196.07 625.64,201.33 633.60,206.53 641.56,211.86 649.52,217.07 657.47,223.02 665.41,229.51 673.36,236.03 681.30,243.58 689.24,251.95 697.17,261.98 705.09,275.47 713.01,296.16 720.92,360.00 728.82,307.92 736.70,287.74 744.57,277.08 752.42,270.51 760.26,266.06 768.08,262.66 775.87,260.09 783.64,258.20 791.37,256.89 799.07,255.86 806.71,255.05 814.31,254.60 821.84,254.45 829.21,254.21 836.47,254.34 843.43,254.55 850.00,254.95" />
<polyline fill="none" stroke="#d04a02" stroke-width="2" points="70.00,418.82 80.90,676.78 85.25,484.25 92.53,417.43 100.48,406.97 108.44,403.94 116.39,402.25 124.35,401.90 132.31,404.96 140.28,405.77 148.24,450.11 156.20,619.73 164.16,527.61 172.12,431.08 180.08,405.74 188.04,545.83 196.00,516.28 203.96,452.33 211.92,444.45 219.87,416.09 227.83,419.66 235.79,414.18 243.74,400.00 251.69,405.21 259.64,675.61 267.59,483.86 275.55,483.11 283.50,548.55 291.44,454.47 299.39,407.43 307.32,400.01 315.28,400.05 323.25,670.19 331.17,619.32 339.02,584.23 346.97,689.36 354.94,552.77 362.90,563.61 370.85,661.53 378.81,680.58 386.77,652.49 394.73,643.15 402.70,639.35 410.66,651.31 418.61,618.21 426.58,678.65 434.55,612.86 442.51,673.22 450.47,626.66 458.44,624.74 466.41,606.64 474.36,639.33 482.33,634.12 490.30,633.59 498.27,603.66 506.23,658.21 514.20,654.45 522.16,651.21 530.07,663.20 538.04,481.36 546.01,401.46 553.99,473.47 561.96,617.50 569.93,616.04 577.90,543.88 585.86,563.41 593.82,567.25 601.79,527.49 609.74,592.98 617.68,628.14 625.64,633.15 633.60,675.26 641.56,680.69 649.52,674.00 657.47,681.83 665.41,643.15 673.36,623.22 681.30,636.18 689.24,686.86 697.17,671.12 705.09,617.49 713.01,622.56 720.92,551.26 728.82,673.43 736.70,640.93 744.57,673.22 752.42,677.23 760.26,687.03 768.08,689.36 775.87,683.74 783.64,682.71 791.37,687.60 799.07,686.49 806.71,683.90 814.31,685.87 821.84,679.60 829.21,680.22 836.47,685.34 843.43,686.51 850.00,676.33" />
<circle cx="70.00" cy="239.14" r="2.2" fill="#d04a02"/>
<circle cx="80.90" cy="230.19" r="2.2" fill="#d04a02"/>
<circle cx="85.25" cy="221.72" r="2.2" fill="#d04a02"/>
<circle cx="92.53" cy="234.44" r="2.2" fill="#d04a02"/>
<circle cx="100.48" cy="225.44" r="2.2" fill="#d04a02"/>
<circle cx="108.44" cy="232.86" r="2.2" fill="#d04a02"/>
<circle cx="116.39" cy="273.31" r="2.2" fill="#d04a02"/>
<circle cx="124.35" cy="308.34" r="2.2" fill="#d04a02"/>
<circle cx="132.31" cy="267.42" r="2.2" fill="#d04a02"/>
<circle cx="140.28" cy="246.74" r="2.2" fill="#d04a02"/>
<circle cx="148.24" cy="284.39" r="2.2" fill="#d04a02"/>
<circle cx="156.20" cy="290.09" r="2.2" fill="#d04a02"/>
<circle cx="164.16" cy="266.62" r="2.2" fill="#d04a02"/>
<circle cx="172.12" cy="250.88" r="2.2" fill="#d04a02"/>
<circle cx="180.08" cy="207.97" r="2.2" fill="#d04a02"/>
<circle cx="188.04" cy="176.94" r="2.2" fill="#d04a02"/>
<circle cx="196.00" cy="185.07" r="2.2" fill="#d04a02"/>
<circle cx="203.96" cy="204.74" r="2.2" fill="#d04a02"/>
<circle cx="211.92" cy="224.90" r="2.2" fill="#d04a02"/>
<circle cx="219.87" cy="213.08" r="2.2" fill="#d04a02"/>
<circle cx="227.83" cy="236.97" r="2.2" fill="#d04a02"/>
<circle cx="235.79" cy="275.80" r="2.2" fill="#d04a02"/>
<circle cx="243.74" cy="269.13" r="2.2" fill="#d04a02"/>
<circle cx="251.69" cy="278.47" r="2.2" fill="#d04a02"/>
<circle cx="259.64" cy="315.22" r="2.2" fill="#d04a02"/>
<circle cx="267.59" cy="293.92" r="2.2" fill="#d04a02"/>
<circle cx="275.55" cy="277.41" r="2.2" fill="#d04a02"/>
<circle cx="283.50" cy="280.88" r="2.2" fill="#d04a02"/>
<circle cx="291.44" cy="275.64" r="2.2" fill="#d04a02"/>
<circle cx="299.39" cy="259.93" r="2.2" fill="#d04a02"/>
<circle cx="307.32" cy="249.13" r="2.2" fill="#d04a02"/>
<circle cx="315.28" cy="264.43" r="2.2" fill="#d04a02"/>
<circle cx="323.25" cy="295.95" r="2.2" fill="#d04a02"/>
<circle cx="331.17" cy="284.63" r="2.2" fill="#d04a02"/>
<circle cx="339.02" cy="294.37" r="2.2" fill="#d04a02"/>
<circle cx="346.97" cy="275.65" r="2.2" fill="#d04a02"/>
<circle cx="354.94" cy="264.53" r="2.2" fill="#d04a02"/>
<circle cx="362.90" cy="253.04" r="2.2" fill="#d04a02"/>
<circle cx="370.85" cy="243.84" r="2.2" fill="#d04a02"/>
<circle cx="378.81" cy="235.53" r="2.2" fill="#d04a02"/>
<circle cx="386.77" cy="227.31" r="2.2" fill="#d04a02"/>
<circle cx="394.73" cy="220.64" r="2.2" fill="#d04a02"/>
<circle cx="402.70" cy="216.37" r="2.2" fill="#d04a02"/>
<circle cx="410.66" cy="210.91" r="2.2" fill="#d04a02"/>
<circle cx="418.61" cy="203.43" r="2.2" fill="#d04a02"/>
<circle cx="426.58" cy="200.51" r="2.2" fill="#d04a02"/>
<circle cx="434.55" cy="196.21" r="2.2" fill="#d04a02"/>
<circle cx="442.51" cy="191.40" r="2.2" fill="#d04a02"/>
<circle cx="450.47" cy="185.66" r="2.2" fill="#d04a02"/>
<circle cx="458.44" cy="183.34" r="2.2" fill="#d04a02"/>
<circle cx="466.41" cy="178.87" r="2.2" fill="#d04a02"/>
<circle cx="474.36" cy="172.91" r="2.2" fill="#d04a02"/>
<circle cx="482.33" cy="167.89" r="2.2" fill="#d04a02"/>
<circle cx="490.30" cy="165.07" r="2.2" fill="#d04a02"/>
<circle cx="498.27" cy="159.46" r="2.2" fill="#d04a02"/>
<circle cx="506.23" cy="152.57" r="2.2" fill="#d04a02"/>
<circle cx="514.20" cy="144.30" r="2.2" fill="#d04a02"/>
<circle cx="522.16" cy="132.89" r="2.2" fill="#d04a02"/>
<circle cx="530.07" cy="105.11" r="2.2" fill="#d04a02"/>
<circle cx="538.04" cy="105.12" r="2.2" fill="#d04a02"/>
<circle cx="546.01" cy="121.63" r="2.2" fill="#d04a02"/>
<circle cx="553.99" cy="139.62" r="2.2" fill="#d04a02"/>
<circle cx="561.96" cy="151.35" r="2.2" fill="#d04a02"/>
<circle cx="569.93" cy="155.33" r="2.2" fill="#d04a02"/>
<circle cx="577.90" cy="157.50" r="2.2" fill="#d04a02"/>
<circle cx="585.86" cy="166.80" r="2.2" fill="#d04a02"/>
<circle cx="593.82" cy="173.60" r="2.2" fill="#d04a02"/>
<circle cx="601.79" cy="175.76" r="2.2" fill="#d04a02"/>
<circle cx="609.74" cy="186.98" r="2.2" fill="#d04a02"/>
<circle cx="617.68" cy="196.07" r="2.2" fill="#d04a02"/>
<circle cx="625.64" cy="201.33" r="2.2" fill="#d04a02"/>
<circle cx="633.60" cy="206.53" r="2.2" fill="#d04a02"/>
<circle cx="641.56" cy="211.86" r="2.2" fill="#d04a02"/>
<circle cx="649.52" cy="217.07" r="2.2" fill="#d04a02"/>
<circle cx="657.47" cy="223.02" r="2.2" fill="#d04a02"/>
<circle cx="665.41" cy="229.51" r="2.2" fill="#d04a02"/>
<circle cx="673.36" cy="236.03" r="2.2" fill="#d04a02"/>
<circle cx="681.30" cy="243.58" r="2.2" fill="#d04a02"/>
<circle cx="689.24" cy="251.95" r="2.2" fill="#d04a02"/>
<circle cx="697.17" cy="261.98" r="2.2" fill="#d04a02"/>
<circle cx="705.09" cy="275.47" r="2.2" fill="#d04a02"/>
<circle cx="713.01" cy="296.16" r="2.2" fill="#d04a02"/>
<circle cx="720.92" cy="360.00" r="2.2" fill="#d04a02"/>
<circle cx="728.82" cy="307.92" r="2.2" fill="#d04a02"/>
<circle cx="736.70" cy="287.74" r="2.2" fill="#d04a02"/>
<circle cx="744.57" cy="277.08" r="2.2" fill="#d04a02"/>
<circle cx="752.42" cy="270.51" r="2.2" fill="#d04a02"/>
<circle cx="760.26" cy="266.06" r="2.2" fill="#d04a02"/>
<circle cx="768.08" cy="262.66" r="2.2" fill="#d04a02"/>
<circle cx="775.87" cy="260.09" r="2.2" fill="#d04a02"/>
<circle cx="783.64" cy="258.20" r="2.2" fill="#d04a02"/>
<circle cx="791.37" cy="256.89" r="2.2" fill="#d04a02"/>
<circle cx="799.07" cy="255.86" r="2.2" fill="#d04a02"/>
<circle cx="806.71" cy="255.05" r="2.2" fill="#d04a02"/>
<circle cx="814.31" cy="254.60" r="2.2" fill="#d04a02"/>
<circle cx="821.84" cy="254.45" r="2.2" fill="#d04a02"/>
<circle cx="829.21" cy="254.21" r="2.2" fill="#d04a02"/>
<circle cx="836.47" cy="254.34" r="2.2" fill="#d04a02"/>
<circle cx="843.43" cy="254.55" r="2.2" fill="#d04a02"/>
<circle cx="850.00" cy="254.95" r="2.2" fill="#d04a02"/>
<circle cx="70.00" cy="418.82" r="2.2" fill="#d04a02"/>
<circle cx="80.90" cy="676.78" r="2.2" fill="#d04a02"/>
<circle cx="85.25" cy="484.25" r="2.2" fill="#d04a02"/>
<circle cx="92.53" cy="417.43" r="2.2" fill="#d04a02"/>
<circle cx="100.48" cy="406.97" r="2.2" fill="#d04a02"/>
<circle cx="108.44" cy="403.94" r="2.2" fill="#d04a02"/>
<circle cx="116.39" cy="402.25" r="2.2" fill="#d04a02"/>
<circle cx="124.35" cy="401.90" r="2.2" fill="#d04a02"/>
<circle cx="132.31" cy="404.96" r="2.2" fill="#d04a02"/>
<circle cx="140.28" cy="405.77" r="2.2" fill="#d04a02"/>
<circle cx="148.24" cy="450.11" r="2.2" fill="#d04a02"/>
<circle cx="156.20" cy="619.73" r="2.2" fill="#d04a02"/>
<circle cx="164.16" cy="527.61" r="2.2" fill="#d04a02"/>
<circle cx="172.12" cy="431.08" r="2.2" fill="#d04a02"/>
<circle cx="180.08" cy="405.74" r="2.2" fill="#d04a02"/>
<circle cx="188.04" cy="545.83" r="2.2" fill="#d04a02"/>
<circle cx="196.00" cy="516.28" r="2.2" fill="#d04a02"/>
<circle cx="203.96" cy="452.33" r="2.2" fill="#d04a02"/>
<circle cx="211.92" cy="444.45" r="2.2" fill="#d04a02"/>
<circle cx="219.87" cy="416.09" r="2.2" fill="#d04a02"/>
<circle cx="227.83" cy="419.66" r="2.2" fill="#d04a02"/>
<circle cx="235.79" cy="414.18" r="2.2" fill="#d04a02"/>
<circle cx="243.74" cy="400.00" r="2.2" fill="#d04a02"/>
<circle cx="251.69" cy="405.21" r="2.2" fill="#d04a02"/>
<circle cx="259.64" cy="675.61" r="2.2" fill="#d04a02"/>
<circle cx="267.59" cy="483.86" r="2.2" fill="#d04a02"/>
<circle cx="275.55" cy="483.11" r="2.2" fill="#d04a02"/>
<circle cx="283.50" cy="548.55" r="2.2" fill="#d04a02"/>
<circle cx="291.44" cy="454.47" r="2.2" fill="#d04a02"/>
<circle cx="299.39" cy="407.43" r="2.2" fill="#d04a02"/>
<circle cx="307.32" cy="400.01" r="2.2" fill="#d04a02"/>
<circle cx="315.28" cy="400.05" r="2.2" fill="#d04a02"/>
<circle cx="323.25" cy="670.19" r="2.2" fill="#d04a02"/>
<circle cx="331.17" cy="619.32" r="2.2" fill="#d04a02"/>
<circle cx="339.02" cy="584.23" r="2.2" fill="#d04a02"/>
<circle cx="346.97" cy="689.36" r="2.2" fill="#d04a02"/>
<circle cx="354.94" cy="552.77" r="2.2" fill="#d04a02"/>
<circle cx="362.90" cy="563.61" r="2.2" fill="#d04a02"/>
<circle cx="370.85" cy="661.53" r="2.2" fill="#d04a02"/>
<circle cx="378.81" cy="680.58" r="2.2" fill="#d04a02"/>
<circle cx="386.77" cy="652.49" r="2.2" fill="#d04a02"/>
<circle cx="394.73" cy="643.15" r="2.2" fill="#d04a02"/>
<circle cx="402.70" cy="639.35" r="2.2" fill="#d04a02"/>
<circle cx="410.66" cy="651.31" r="2.2" fill="#d04a02"/>
<circle cx="418.61" cy="618.21" r="2.2" fill="#d04a02"/>
<circle cx="426.58" cy="678.65" r="2.2" fill="#d04a02"/>
<circle cx="434.55" cy="612.86" r="2.2" fill="#d04a02"/>
<circle cx="442.51" cy="673.22" r="2.2" fill="#d04a02"/>
<circle cx="450.47" cy="626.66" r="2.2" fill="#d04a02"/>
<circle cx="458.44" cy="624.74" r="2.2" fill="#d04a02"/>
<circle cx="466.41" cy="606.64" r="2.2" fill="#d04a02"/>
<circle cx="474.36" cy="639.33" r="2.2" fill="#d04a02"/>
<circle cx="482.33" cy="634.12" r="2.2" fill="#d04a02"/>
<circle cx="490.30" cy="633.59" r="2.2" fill="#d04a02"/>
<circle cx="498.27" cy="603.66" r="2.2" fill="#d04a02"/>
<circle cx="506.23" cy="658.21" r="2.2" fill="#d04a02"/>
<circle cx="514.20" cy="654.45" r="2.2" fill="#d04a02"/>
<circle cx="522.16" cy="651.21" r="2.2" fill="#d04a02"/>
<circle cx="530.07" cy="663.20" r="2.2" fill="#d04a02"/>
<circle cx="538.04" cy="481.36" r="2.2" fill="#d04a02"/>
<circle cx="546.01" cy="401.46" r="2.2" fill="#d04a02"/>
<circle cx="553.99" cy="473.47" r="2.2" fill="#d04a02"/>
<circle cx="561.96" cy="617.50" r="2.2" fill="#d04a02"/>
<circle cx="569.93" cy="616.04" r="2.2" fill="#d04a02"/>
<circle cx="577.90" cy="543.88" r="2.2" fill="#d04a02"/>
<circle cx="585.86" cy="563.41" r="2.2" fill="#d04a02"/>
<circle cx="593.82" cy="567.25" r="2.2" fill="#d04a02"/>
<circle cx="601.79" cy="527.49" r="2.2" fill="#d04a02"/>
<circle cx="609.74" cy="592.98" r="2.2" fill="#d04a02"/>
<circle cx="617.68" cy="628.14" r="2.2" fill="#d04a02"/>
<circle cx="625.64" cy="633.15" r="2.2" fill="#d04a02"/>
<circle cx="633.60" cy="675.26" r="2.2" fill="#d04a02"/>
<circle cx="641.56" cy="680.69" r="2.2" fill="#d04a02"/>
<circle cx="649.52" cy="674.00" r="2.2" fill="#d04a02"/>
<circle cx="657.47" cy="681.83" r="2.2" fill="#d04a02"/>
<circle cx="665.41" cy="643.15" r="2.2" fill="#d04a02"/>
<circle cx="673.36" cy="623.22" r="2.2" fill="#d04a02"/>
<circle cx="681.30" cy="636.18" r="2.2" fill="#d04a02"/>
<circle cx="689.24" cy="686.86" r="2.2" fill="#d04a02"/>
<circle cx="697.17" cy="671.12" r="2.2" fill="#d04a02"/>
<circle cx="705.09" cy="617.49" r="2.2" fill="#d04a02"/>
<circle cx="713.01" cy="622.56" r="2.2" fill="#d04a02"/>
<circle cx="720.92" cy="551.26" r="2.2" fill="#d04a02"/>
<circle cx="728.82" cy="673.43" r="2.2" fill="#d04a02"/>
<circle cx="736.70" cy="640.93" r="2.2" fill="#d04a02"/>
<circle cx="744.57" cy="673.22" r="2.2" fill="#d04a02"/>
<circle cx="752.42" cy="677.23" r="2.2" fill="#d04a02"/>
<circle cx="760.26" cy="687.03" r="2.2" fill="#d04a02"/>
<circle cx="768.08" cy="689.36" r="2.2" fill="#d04a02"/>
<circle cx="775.87" cy="683.74" r="2.2" fill="#d04a02"/>
<circle cx="783.64" cy="682.71" r="2.2" fill="#d04a02"/>
<circle cx="791.37" cy="687.60" r="2.2" fill="#d04a02"/>
<circle cx="799.07" cy="686.49" r="2.2" fill="#d04a02"/>
<circle cx="806.71" cy="683.90" r="2.2" fill="#d04a02"/>
<circle cx="814.31" cy="685.87" r="2.2" fill="#d04a02"/>
<circle cx="821.84" cy="679.60" r="2.2" fill="#d04a02"/>
<circle cx="829.21" cy="680.22" r="2.2" fill="#d04a02"/>
<circle cx="836.47" cy="685.34" r="2.2" fill="#d04a02"/>
<circle cx="843.43" cy="686.51" r="2.2" fill="#d04a02"/>
<circle cx="850.00" cy="676.33" r="2.2" fill="#d04a02"/>
<polyline fill="none" stroke="#1f77b4" stroke-width="2" points="78.00,206.35 82.00,201.45 86.00,201.69 89.99,204.98 93.98,210.97 97.97,220.13 101.96,234.53 105.95,263.38 109.93,280.18 113.92,244.67 117.90,231.89 121.88,225.61 125.87,222.90 129.86,222.77 133.85,224.85 137.85,229.42 141.85,236.77 145.85,248.41 149.86,268.12 153.87,321.55 157.87,296.29 161.87,297.51 164.93,303.67 167.97,235.06 171.29,209.64 175.20,205.81 179.09,209.00 182.99,219.76 186.96,239.84 190.96,299.21 194.96,253.94 198.97,233.64 202.97,224.11 206.97,219.22 210.97,217.54 214.96,218.59 218.95,222.54 222.93,230.12 226.92,243.29 230.90,269.93 234.89,299.40 238.88,259.84 242.87,249.55 246.87,248.49 250.86,255.42 254.86,276.55 258.86,311.74 262.85,265.74 266.85,256.52 270.84,265.18 274.82,289.55 278.79,229.82 282.77,210.95 286.74,199.17 290.72,190.47 294.69,183.50 298.66,177.97 302.65,175.10 306.63,174.36 310.62,176.54 314.61,184.53 318.60,217.54 322.61,183.14 326.61,144.34 330.58,121.00 334.35,147.72 338.12,95.70 341.89,70.00 345.66,89.31 349.64,120.14 353.65,153.67 357.65,222.63 361.64,184.58 365.62,170.15 369.54,176.17 373.45,182.27 377.37,186.55 381.28,188.97 385.20,189.70 389.11,189.09 392.94,202.83 396.74,235.50 400.54,257.88 404.35,230.13 408.19,227.80 412.05,236.24 415.91,258.01 419.76,358.54 423.59,272.04 427.37,274.47 431.09,343.24 434.76,261.34 438.42,247.29 442.08,249.73 445.76,274.08 449.41,286.66 452.97,259.90 456.22,290.68 459.21,271.27 462.00,249.43" />
<polyline fill="none" stroke="#1f77b4" stroke-width="2" points="78.00,400.00 82.00,400.00 86.00,400.00 89.99,400.00 93.98,400.00 97.97,400.00 101.96,400.00 105.95,400.00 109.93,400.00 113.92,400.00 117.90,400.00 121.88,400.00 125.87,400.00 129.86,400.00 133.85,400.00 137.85,400.00 141.85,400.00 145.85,400.00 149.86,400.00 153.87,400.00 157.87,400.00 161.87,400.00 164.93,400.00 167.97,400.00 171.29,400.00 175.20,400.00 179.09,400.00 182.99,400.00 186.96,400.00 190.96,400.00 194.96,400.00 198.97,400.00 202.97,400.00 206.97,400.00 210.97,400.00 214.96,400.00 218.95,400.00 222.93,400.00 226.92,400.00 230.90,400.00 234.89,400.00 238.88,400.00 242.87,400.00 246.87,400.00 250.86,400.00 254.86,400.00 258.86,400.00 262.85,400.00 266.85,400.00 270.84,400.00 274.82,400.00 278.79,400.00 282.77,400.00 286.74,400.00 290.72,400.00 294.69,400.00 298.66,400.00 302.65,400.00 306.63,400.00 310.62,400.00 314.61,400.00 318.60,400.00 322.61,400.00 326.61,400.00 330.58,400.00 334.35,400.00 338.12,400.00 341.89,400.00 345.66,400.00 349.64,400.00 353.65,400.00 357.65,400.00 361.64,400.00 365.62,400.00 369.54,400.00 373.45,400.00 377.37,400.00 381.28,400.00 385.20,400.00 389.11,400.00 392.94,400.00 396.74,400.00 400.54,400.00 404.35,400.00 408.19,400.00 412.05,400.00 415.91,400.00 419.76,400.00 423.59,400.00 427.37,400.00 431.09,400.00 434.76,400.00 438.42,400.00 442.08,400.00 445.76,400.00 449.41,400.00 452.97,400.00 456.22,400.00 459.21,400.00 462.00,400.00" />
<circle cx="78.00" cy="206.35" r="2.2" fill="#1f77b4"/>
<circle cx="82.00" cy="201.45" r="2.2" fill="#1f77b4"/>
<circle cx="86.00" cy="201.69" r="2.2" fill="#1f77b4"/>
<circle cx="89.99" cy="204.98" r="2.2" fill="#1f77b4"/>
<circle cx="93.98" cy="210.97" r="2.2" fill="#1f77b4"/>
<circle cx="97.97" cy="220.13" r="2.2" fill="#1f77b4"/>
<circle cx="101.96" cy="234.53" r="2.2" fill="#1f77b4"/>
<circle cx="105.95" cy="263.38" r="2.2" fill="#1f77b4"/>
<circle cx="109.93" cy="280.18" r="2.2" fill="#1f77b4"/>
<circle cx="113.92" cy="244.67" r="2.2" fill="#1f77b4"/>
<circle cx="117.90" cy="231.89" r="2.2" fill="#1f77b4"/>
<circle cx="121.88" cy="225.61" r="2.2" fill="#1f77b4"/>
<circle cx="125.87" cy="222.90" r="2.2" fill="#1f77b4"/>
<circle cx="129.86" cy="222.77" r="2.2" fill="#1f77b4"/>
<circle cx="133.85" cy="224.85" r="2.2" fill="#1f77b4"/>
<circle cx="137.85" cy="229.42" r="2.2" fill="#1f77b4"/>
<circle cx="141.85" cy="236.77" r="2.2" fill="#1f77b4"/>
<circle cx="145.85" cy="248.41" r="2.2" fill="#1f77b4"/>
<circle cx="149.86" cy="268.12" r="2.2" fill="#1f77b4"/>
<circle cx="153.87" cy="321.55" r="2.2" fill="#1f77b4"/>
<circle cx="157.87" cy="296.29" r="2.2" fill="#1f77b4"/>
<circle cx="161.87" cy="297.51" r="2.2" fill="#1f77b4"/>
<circle cx="164.93" cy="303.67" r="2.2" fill="#1f77b4"/>
<circle cx="167.97" cy="235.06" r="2.2" fill="#1f77b4"/>
<circle cx="171.29" cy="209.64" r="2.2" fill="#1f77b4"/>
<circle cx="175.20" cy="205.81" r="2.2" fill="#1f77b4"/>
<circle cx="179.09" cy="209.00" r="2.2" fill="#1f77b4"/>
<circle cx="182.99" cy="219.76" r="2.2" fill="#1f77b4"/>
<circle cx="186.96" cy="239.84" r="2.2" fill="#1f77b4"/>
<circle cx="190.96" cy="299.21" r="2.2" fill="#1f77b4"/>
<circle cx="194.96" cy="253.94" r="2.2" fill="#1f77b4"/>
<circle cx="198.97" cy="233.64" r="2.2" fill="#1f77b4"/>
<circle cx="202.97" cy="224.11" r="2.2" fill="#1f77b4"/>
<circle cx="206.97" cy="219.22" r="2.2" fill="#1f77b4"/>
<circle cx="210.97" cy="217.54" r="2.2" fill="#1f77b4"/>
<circle cx="214.96" cy="218.59" r="2.2" fill="#1f77b4"/>
<circle cx="218.95" cy="222.54" r="2.2" fill="#1f77b4"/>
<circle cx="222.93" cy="230.12" r="2.2" fill="#1f77b4"/>
<circle cx="226.92" cy="243.29" r="2.2" fill="#1f77b4"/>
<circle cx="230.90" cy="269.93" r="2.2" fill="#1f77b4"/>
<circle cx="234.89" cy="299.40" r="2.2" fill="#1f77b4"/>
<circle cx="238.88" cy="259.84" r="2.2" fill="#1f77b4"/>
<circle cx="242.87" cy="249.55" r="2.2" fill="#1f77b4"/>
<circle cx="246.87" cy="248.49" r="2.2" fill="#1f77b4"/>
<circle cx="250.86" cy="255.42" r="2.2" fill="#1f77b4"/>
<circle cx="254.86" cy="276.55" r="2.2" fill="#1f77b4"/>
<circle cx="258.86" cy="311.74" r="2.2" fill="#1f77b4"/>
<circle cx="262.85" cy="265.74" r="2.2" fill="#1f77b4"/>
<circle cx="266.85" cy="256.52" r="2.2" fill="#1f77b4"/>
<circle cx="270.84" cy="265.18" r="2.2" fill="#1f77b4"/>
<circle cx="274.82" cy="289.55" r="2.2" fill="#1f77b4"/>
<circle cx="278.79" cy="229.82" r="2.2" fill="#1f77b4"/>
<circle cx="282.77" cy="210.95" r="2.2" fill="#1f77b4"/>
<circle cx="286.74" cy="199.17" r="2.2" fill="#1f77b4"/>
<circle cx="290.72" cy="190.47" r="2.2" fill="#1f77b4"/>
<circle cx="294.69" cy="183.50" r="2.2" fill="#1f77b4"/>
<circle cx="298.66" cy="177.97" r="2.2" fill="#1f77b4"/>
<circle cx="302.65" cy="175.10" r="2.2" fill="#1f77b4"/>
<circle cx="306.63" cy="174.36" r="2.2" fill="#1f77b4"/>
<circle cx="310.62" cy="176.54" r="2.2" fill="#1f77b4"/>
<circle cx="314.61" cy="184.53" r="2.2" fill="#1f77b4"/>
<circle cx="318.60" cy="217.54" r="2.2" fill="#1f77b4"/>
<circle cx="322.61" cy="183.14" r="2.2" fill="#1f77b4"/>
<circle cx="326.61" cy="144.34" r="2.2" fill="#1f77b4"/>
<circle cx="330.58" cy="121.00" r="2.2" fill="#1f77b4"/>
<circle cx="334.35" cy="147.72" r="2.2" fill="#1f77b4"/>
<circle cx="338.12" cy="95.70" r="2.2" fill="#1f77b4"/>
<circle cx="341.89" cy="70.00" r="2.2" fill="#1f77b4"/>
<circle cx="345.66" cy="89.31" r="2.2" fill="#1f77b4"/>
<circle cx="349.64" cy="120.14" r="2.2" fill="#1f77b4"/>
<circle cx="353.65" cy="153.67" r="2.2" fill="#1f77b4"/>
<circle cx="357.65" cy="222.63" r="2.2" fill="#1f77b4"/>
<circle cx="361.64" cy="184.58" r="2.2" fill="#1f77b4"/>
<circle cx="365.62" cy="170.15" r="2.2" fill="#1f77b4"/>
<circle cx="369.54" cy="176.17" r="2.2" fill="#1f77b4"/>
<circle cx="373.45" cy="182.27" r="2.2" fill="#1f77b4"/>
<circle cx="377.37" cy="186.55" r="2.2" fill="#1f77b4"/>
<circle cx="381.28" cy="188.97" r="2.2" fill="#1f77b4"/>
<circle cx="385.20" cy="189.70" r="2.2" fill="#1f77b4"/>
<circle cx="389.11" cy="189.09" r="2.2" fill="#1f77b4"/>
<circle cx="392.94" cy="202.83" r="2.2" fill="#1f77b4"/>
<circle cx="396.74" cy="235.50" r="2.2" fill="#1f77b4"/>
<circle cx="400.54" cy="257.88" r="2.2" fill="#1f77b4"/>
<circle cx="404.35" cy="230.13" r="2.2" fill="#1f77b4"/>
<circle cx="408.19" cy="227.80" r="2.2" fill="#1f77b4"/>
<circle cx="412.05" cy="236.24" r="2.2" fill="#1f77b4"/>
<circle cx="415.91" cy="258.01" r="2.2" fill="#1f77b4"/>
<circle cx="419.76" cy="358.54" r="2.2" fill="#1f77b4"/>
<circle cx="423.59" cy="272.04" r="2.2" fill="#1f77b4"/>
<circle cx="427.37" cy="274.47" r="2.2" fill="#1f77b4"/>
<circle cx="431.09" cy="343.24" r="2.2" fill="#1f77b4"/>
<circle cx="434.76" cy="261.34" r="2.2" fill="#1f77b4"/>
<circle cx="438.42" cy="247.29" r="2.2" fill="#1f77b4"/>
<circle cx="442.08" cy="249.73" r="2.2" fill="#1f77b4"/>
<circle cx="445.76" cy="274.08" r="2.2" fill="#1f77b4"/>
<circle cx="449.41" cy="286.66" r="2.2" fill="#1f77b4"/>
<circle cx="452.97" cy="259.90" r="2.2" fill="#1f77b4"/>
<circle cx="456.22" cy="290.68" r="2.2" fill="#1f77b4"/>
<circle cx="459.21" cy="271.27" r="2.2" fill="#1f77b4"/>
<circle cx="462.00" cy="249.43" r="2.2" fill="#1f77b4"/>
<circle cx="78.00" cy="400.00" r="2.2" fill="#1f77b4"/>
<circle cx="82.00" cy="400.00" r="2.2" fill="#1f77b4"/>
<circle cx="86.00" cy="400.00" r="2.2" fill="#1f77b4"/>
<circle cx="89.99" cy="400.00" r="2.2" fill="#1f77b4"/>
<circle cx="93.98" cy="400.00" r="2.2" fill="#1f77b4"/>
<circle cx="97.97" cy="400.00" r="2.2" fill="#1f77b4"/>
<circle cx="101.96" cy="400.00" r="2.2" fill="#1f77b4"/>
<circle cx="105.95" cy="400.00" r="2.2" fill="#1f77b4"/>
<circle cx="109.93" cy="400.00" r="2.2" fill="#1f77b4"/>
<circle cx="113.92" cy="400.00" r="2.2" fill="#1f77b4"/>
<circle cx="117.90" cy="400.00" r="2.2" fill="#1f77b4"/>
<circle cx="121.88" cy="400.00" r="2.2" fill="#1f77b4"/>
<circle cx="125.87" cy="400.00" r="2.2" fill="#1f77b4"/>
<circle cx="129.86" cy="400.00" r="2.2" fill="#1f77b4"/>
<circle cx="133.85" cy="400.00" r="2.2" fill="#1f77b4"/>
<circle cx="137.85" cy="400.00" r="2.2" fill="#1f77b4"/>
<circle cx="141.85" cy="400.00" r="2.2" fill="#1f77b4"/>
<circle cx="145.85" cy="400.00" r="2.2" fill="#1f77b4"/>
<circle cx="149.86" cy="400.00" r="2.2" fill="#1f77b4"/>
<circle cx="153.87" cy="400.00" r="2.2" fill="#1f77b4"/>
<circle cx="157.87" cy="400.00" r="2.2" fill="#1f77b4"/>
<circle cx="161.87" cy="400.00" r="2.2" fill="#1f77b4"/>
<circle cx="164.93" cy="400.00" r="2.2" fill="#1f77b4"/>
<circle cx="167.97" cy="400.00" r="2.2" fill="#1f77b4"/>
<circle cx="171.29" cy="400.00" r="2.2" fill="#1f77b4"/>
<circle cx="175.20" cy="400.00" r="2.2" fill="#1f77b4"/>
<circle cx="179.09" cy="400.00" r="2.2" fill="#1f77b4"/>
<circle cx="182.99" cy="400.00" r="2.2" fill="#1f77b4"/>
<circle cx="186.96" cy="400.00" r="2.2" fill="#1f77b4"/>
<circle cx="190.96" cy="400.00" r="2.2" fill="#1f77b4"/>
<circle cx="194.96" cy="400.00" r="2.2" fill="#1f77b4"/>
<circle cx="198.97" cy="400.00" r="2.2" fill="#1f77b4"/>
<circle cx="202.97" cy="400.00" r="2.2" fill="#1f77b4"/>
<circle cx="206.97" cy="400.00" r="2.2" fill="#1f77b4"/>
<circle cx="210.97" cy="400.00" r="2.2" fill="#1f77b4"/>
<circle cx="214.96" cy="400.00" r="2.2" fill="#1f77b4"/>
<circle cx="218.95" cy="400.00" r="2.2" fill="#1f77b4"/>
<circle cx="222.93" cy="400.00" r="2.2" fill="#1f77b4"/>
<circle cx="226.92" cy="400.00" r="2.2" fill="#1f77b4"/>
<circle cx="230.90" cy="400.00" r="2.2" fill="#1f77b4"/>
<circle cx="234.89" cy="400.00" r="2.2" fill="#1f77b4"/>
<circle cx="238.88" cy="400.00" r="2.2" fill="#1f77b4"/>
<circle cx="242.87" cy="400.00" r="2.2" fill="#1f77b4"/>
<circle cx="246.87" cy="400.00" r="2.2" fill="#1f77b4"/>
<circle cx="250.86" cy="400.00" r="2.2" fill="#1f77b4"/>
<circle cx="254.86" cy="400.00" r="2.2" fill="#1f77b4"/>
<circle cx="258.86" cy="400.00" r="2.2" fill="#1f77b4"/>
<circle cx="262.85" cy="400.00" r="2.2" fill="#1f77b4"/>
<circle cx="266.85" cy="400.00" r="2.2" fill="#1f77b4"/>
<circle cx="270.84" cy="400.00" r="2.2" fill="#1f77b4"/>
<circle cx="274.82" cy="400.00" r="2.2" fill="#1f77b4"/>
<circle cx="278.79" cy="400.00" r="2.2" fill="#1f77b4"/>
<circle cx="282.77" cy="400.00" r="2.2" fill="#1f77b4"/>
<circle cx="286.74" cy="400.00" r="2.2" fill="#1f77b4"/>
<circle cx="290.72" cy="400.00" r="2.2" fill="#1f77b4"/>
<circle cx="294.69" cy="400.00" r="2.2" fill="#1f77b4"/>
<circle cx="298.66" cy="400.00" r="2.2" fill="#1f77b4"/>
<circle cx="302.65" cy="400.00" r="2.2" fill="#1f77b4"/>
<circle cx="306.63" cy="400.00" r="2.2" fill="#1f77b4"/>
<circle cx="310.62" cy="400.00" r="2.2" fill="#1f77b4"/>
<circle cx="314.61" cy="400.00" r="2.2" fill="#1f77b4"/>
<circle cx="318.60" cy="400.00" r="2.2" fill="#1f77b4"/>
<circle cx="322.61" cy="400.00" r="2.2" fill="#1f77b4"/>
<circle cx="326.61" cy="400.00" r="2.2" fill="#1f77b4"/>
<circle cx="330.58" cy="400.00" r="2.2" fill="#1f77b4"/>
<circle cx="334.35" cy="400.00" r="2.2" fill="#1f77b4"/>
<circle cx="338.12" cy="400.00" r="2.2" fill="#1f77b4"/>
<circle cx="341.89" cy="400.00" r="2.2" fill="#1f77b4"/>
<circle cx="345.66" cy="400.00" r="2.2" fill="#1f77b4"/>
<circle cx="349.64" cy="400.00" r="2.2" fill="#1f77b4"/>
<circle cx="353.65" cy="400.00" r="2.2" fill="#1f77b4"/>
<circle cx="357.65" cy="400.00" r="2.2" fill="#1f77b4"/>
<circle cx="361.64" cy="400.00" r="2.2" fill="#1f77b4"/>
<circle cx="365.62" cy="400.00" r="2.2" fill="#1f77b4"/>
<circle cx="369.54" cy="400.00" r="2.2" fill="#1f77b4"/>
<circle cx="373.45" cy="400.00" r="2.2" fill="#1f77b4"/>
<circle cx="377.37" cy="400.00" r="2.2" fill="#1f77b4"/>
<circle cx="381.28" cy="400.00" r="2.2" fill="#1f77b4"/>
<circle cx="385.20" cy="400.00" r="2.2" fill="#1f77b4"/>
<circle cx="389.11" cy="400.00" r="2.2" fill="#1f77b4"/>
<circle cx="392.94" cy="400.00" r="2.2" fill="#1f77b4"/>
<circle cx="396.74" cy="400.00" r="2.2" fill="#1f77b4"/>
<circle cx="400.54" cy="400.00" r="2.2" fill="#1f77b4"/>
<circle cx="404.35" cy="400.00" r="2.2" fill="#1f77b4"/>
<circle cx="408.19" cy="400.00" r="2.2" fill="#1f77b4"/>
<circle cx="412.05" cy="400.00" r="2.2" fill="#1f77b4"/>
<circle cx="415.91" cy="400.00" r="2.2" fill="#1f77b4"/>
<circle cx="419.76" cy="400.00" r="2.2" fill="#1f77b4"/>
<circle cx="423.59" cy="400.00" r="2.2" fill="#1f77b4"/>
<circle cx="427.37" cy="400.00" r="2.2" fill="#1f77b4"/>
<circle cx="431.09" cy="400.00" r="2.2" fill="#1f77b4"/>
<circle cx="434.76" cy="400.00" r="2.2" fill="#1f77b4"/>
<circle cx="438.42" cy="400.00" r="2.2" fill="#1f77b4"/>
<circle cx="442.08" cy="400.00" r="2.2" fill="#1f77b4"/>
<circle cx="445.76" cy="400.00" r="2.2" fill="#1f77b4"/>
<circle cx="449.41" cy="400.00" r="2.2" fill="#1f77b4"/>
<circle cx="452.97" cy="400.00" r="2.2" fill="#1f77b4"/>
<circle cx="456.22" cy="400.00" r="2.2" fill="#1f77b4"/>
<circle cx="459.21" cy="400.00" r="2.2" fill="#1f77b4"/>
<circle cx="462.00" cy="400.00" r="2.2" fill="#1f77b4"/>
</svg>